<svg xmlns="http://www.w3.org/2000/svg" width="3840" height="2160" viewBox="0 0 3840 2160">
  <defs>
    <style>
      .cls-1 {
        fill-rule: evenodd;
      }
    </style>
  </defs>
  <path id="Color_Fill_1" data-name="Color Fill 1" class="cls-1" d="M0,0H3840V1143q-85.485-10.5-171-21c-117.81-30.44-234.97-61.83-355-94q-45-16-90-32c-23.01-5.375-39.61,13.24-52,21-25.44,15.93-62.85,32.59-95,40-19.81,4.57-58.33-8.63-76-12q-60.495-1.995-121-4l-153-3-67,3q-27-10.995-54-22-45.99-14.5-92-29l-41-3-81-1q-16.005,8.5-32,17-105.99,40.5-212,81c-40.77,12.95-85.32,16.94-132,25q-36,1.995-72,4-43.5-.495-87-1-21.495-.495-43-1c-34.71-5.68-70.13-4.24-102-10l-105-9c-58.34-12.92-107.94-32.86-163-47q-106.995-20.505-214-41-42.99-2.5-86-5l-22,3L962,979l-74-6c-53.561-8.917-112.844,3.146-162-5-20.233-3.353-39.591,2.729-55,6-38.032,8.074-86.947,16.6-133,9L405,971c-118.334-22.189-232.332-44.214-342-77L0,883V0Z"/>
</svg>
